<svg width="1440" height="821" viewBox="0 0 1440 821" fill="none" xmlns="http://www.w3.org/2000/svg">
<g clip-path="url(#clip0_2_35)">
<path d="M-8 699.306C-8 506.626 112.233 337.223 330.699 337.223C466.414 337.223 587.96 395.411 587.96 479.457C587.96 621.691 378.548 620.423 238.94 652.755C163.975 670.868 109.653 697.992 117.439 762.657C153.654 867.396 240.253 960.498 395.388 960.498C538.889 960.498 642.282 842.808 695.292 696.725C700.452 687.668 709.506 691.562 705.613 700.619C637.122 886.823 506.522 1014.84 319.11 1014.84C131.699 1014.84 -8 873.872 -8 699.306ZM237.627 641.117C346.226 615.26 480.628 607.517 479.361 482.083C478.048 414.838 443.146 348.906 330.699 348.906C201.412 348.906 96.7061 445.902 96.7061 641.162C96.7061 669.6 100.599 700.664 108.34 731.683C118.661 679.97 172.984 656.694 237.627 641.162V641.117Z" fill="white"/>
<path d="M553.013 1005.74C545.272 1005.74 545.272 996.679 553.013 996.679C651.246 995.366 653.826 960.453 653.826 859.607V191.094C653.826 122.536 637.031 76.03 555.593 82.4601C549.12 83.7734 549.12 75.9847 555.593 74.7168C606.022 60.4979 700.362 25.5847 746.898 0.995989C749.478 -1.58514 754.639 0.995989 754.639 6.15825V859.607C754.639 960.453 757.219 995.366 855.452 996.679C863.193 996.679 863.193 1005.74 855.452 1005.74C788.228 1005.74 776.594 1001.84 753.326 1001.84H655.093C631.825 1001.84 620.191 1005.74 552.968 1005.74H553.013Z" fill="white"/>
<path d="M976.998 231.034C993.792 183.17 1014.48 170.264 1048.11 172.845C1110.18 176.74 1178.67 236.196 1230.37 240.091C1306.64 245.253 1345.39 171.577 1362.23 121.132C1363.55 114.657 1355.76 109.494 1353.18 117.238C1337.65 166.37 1316.96 188.377 1282.06 185.751C1216.15 180.589 1159.25 123.668 1099.81 118.506C1037.75 113.343 984.784 176.694 967.944 227.14C965.364 233.615 974.418 238.777 976.998 231.034Z" fill="white"/>
<path d="M1596.23 932.06C1576.85 961.811 1558.74 991.562 1527.73 991.562C1499.31 991.562 1483.78 951.487 1477.31 916.574L1412.66 553.223C1379.07 364.438 1274.37 336 1167.04 336C965.364 336 808.373 464.015 725.622 700.664C724.309 703.245 724.309 707.14 728.202 708.408C732.095 709.721 734.675 707.094 735.943 704.513C808.327 492.453 962.784 348.906 1148.93 348.906C1217.42 348.906 1282.06 416.151 1307.91 540.272C1319.54 707.094 845.131 703.2 845.131 884.242C845.131 969.6 916.247 1020 1009.32 1020C1200.62 1020 1322.17 838.958 1332.49 674.762L1376.45 910.098C1385.5 957.962 1412.66 1016.15 1492.79 1016.15C1552.23 1016.15 1579.39 982.551 1606.55 937.268C1609.13 930.792 1600.07 926.943 1596.18 932.106L1596.23 932.06ZM1090.76 974.717C1014.48 974.717 956.31 937.223 956.31 871.245C956.31 697.947 1274.32 700.574 1314.38 576.408L1324.71 630.702C1323.39 797.525 1220 974.672 1090.71 974.672L1090.76 974.717Z" fill="white"/>
</g>
<defs>
<clipPath id="clip0_2_35">
<rect width="1615" height="1020" fill="white" transform="translate(-8)"/>
</clipPath>
</defs>
</svg>
