<svg width="32" height="32" viewBox="0 0 32 32" fill="none" xmlns="http://www.w3.org/2000/svg">
<path d="M16.0643 8.6232e-05C7.28442 8.6232e-05 0.128643 7.12007 0.128643 15.856C0.128643 18.656 0.868342 21.376 2.25126 23.776L0 32L8.44221 29.792C10.7739 31.056 13.395 31.728 16.0643 31.728C24.8442 31.728 32 24.608 32 15.872C32 11.6321 30.3437 7.64807 27.3367 4.65607C25.8622 3.17465 24.1062 2.00003 22.1709 1.20066C20.2356 0.401299 18.1597 -0.00682105 16.0643 8.6232e-05ZM16.0804 2.67208C19.6181 2.67208 22.9307 4.04808 25.4392 6.54407C26.67 7.7689 27.6458 9.22328 28.3108 10.8239C28.9758 12.4246 29.3169 14.14 29.3146 15.872C29.3146 23.136 23.3648 29.04 16.0643 29.04C13.6844 29.04 11.3528 28.416 9.32663 27.2L8.84422 26.928L3.82714 28.24L5.16181 23.376L4.8402 22.864C3.51284 20.7655 2.81032 18.3356 2.81407 15.856C2.83015 8.59206 8.76382 2.67208 16.0804 2.67208ZM10.4201 8.52806C10.1628 8.52806 9.72864 8.62406 9.35879 9.02406C9.00502 9.42406 7.9598 10.4001 7.9598 12.3361C7.9598 14.288 9.39095 16.16 9.56784 16.432C9.79296 16.704 12.398 20.704 16.402 22.4C17.3508 22.832 18.0905 23.072 18.6693 23.248C19.6181 23.552 20.4864 23.504 21.1779 23.408C21.9497 23.296 23.5256 22.448 23.8633 21.52C24.201 20.592 24.201 19.808 24.1045 19.632C23.992 19.472 23.7347 19.376 23.3327 19.2C22.9307 18.976 20.9688 18.016 20.6151 17.888C20.2452 17.76 20.0201 17.696 19.7146 18.08C19.4573 18.48 18.6854 19.376 18.4603 19.632C18.2191 19.904 17.994 19.936 17.608 19.744C17.1899 19.536 15.9035 19.12 14.392 17.776C13.202 16.72 12.4141 15.424 12.1729 15.024C11.9799 14.64 12.1568 14.4 12.3497 14.224C12.5266 14.0481 12.7839 13.76 12.9447 13.5201C13.1538 13.2961 13.2181 13.1201 13.3467 12.8641C13.4754 12.5921 13.4111 12.3681 13.3146 12.1761C13.2181 12.0001 12.4141 10.0161 12.0764 9.23206C11.7548 8.46406 11.4332 8.56006 11.1759 8.54406C10.9508 8.54406 10.6935 8.52806 10.4201 8.52806Z" fill="#f4e9e6"/>
</svg>
