<svg width="340" height="340" viewBox="0 0 340 340" fill="none" xmlns="http://www.w3.org/2000/svg">
<path d="M336.753 166.043H198.627H179.538L193.04 152.547L265.058 80.548L265.109 80.4973L265.16 80.4465C265.54 80.0787 265.838 79.6475 266.048 79.1655C266.257 78.6835 266.365 78.1698 266.371 77.6371C266.371 77.1107 266.276 76.5907 266.079 76.1024C265.883 75.614 265.591 75.1765 265.217 74.8023C264.849 74.4345 264.411 74.1427 263.923 73.9398C263.447 73.7432 262.94 73.6481 262.426 73.6481C261.868 73.6481 261.355 73.7622 260.866 73.9715C260.384 74.1808 259.953 74.4788 259.585 74.8594L259.541 74.9038L259.496 74.9482L187.478 146.947L173.983 160.443V3.24069C173.463 1.20495 171.839 0 170.032 0C168.224 0 166.594 1.2113 166.081 3.24069V141.373V160.468L152.579 146.96L80.5797 74.9291L80.529 74.8784L80.4783 74.8277C80.1104 74.4471 79.6792 74.1491 79.1972 73.9398C78.7152 73.7305 78.2015 73.6227 77.6688 73.6164C77.1171 73.6164 76.6161 73.7178 76.1404 73.9081C75.6521 74.1047 75.2145 74.3964 74.8403 74.7706C74.4662 75.1447 74.1744 75.5823 73.9779 76.0707C73.7749 76.559 73.6798 77.0727 73.6798 77.599C73.6798 78.1254 73.7939 78.6391 73.9969 79.1274C74.2062 79.6094 74.5042 80.047 74.8847 80.4085L74.9355 80.4529L74.9862 80.5036L147.004 152.535L160.5 166.03H3.24069C1.20495 166.55 0 168.174 0 169.981C0 171.788 1.2113 173.418 3.24069 173.932H141.373H160.462L146.96 187.427L75.0052 259.363C74.3013 260.112 73.9208 261.082 73.9271 262.109C73.9335 263.149 74.3457 264.132 75.0813 264.868C75.817 265.61 76.8 266.022 77.84 266.029C78.8928 266.029 79.8504 265.648 80.5861 264.957L152.541 193.021L166.036 179.525V336.721C166.556 338.757 168.18 339.968 169.987 339.968C171.795 339.968 173.425 338.757 173.938 336.721V198.595V179.506L187.434 193.008L259.376 264.963C260.112 265.661 261.076 266.041 262.09 266.041C263.162 266.035 264.145 265.623 264.881 264.887C265.623 264.151 266.035 263.168 266.041 262.128C266.054 261.101 265.673 260.124 264.969 259.382L193.034 187.427L179.538 173.932H336.74C338.776 173.412 339.987 171.788 339.987 169.981C339.987 168.174 338.776 166.544 336.74 166.03L336.753 166.043Z" fill="#CD0005"/>
</svg>
