<?xml version="1.0" encoding="UTF-8"?>
<svg id="Camada_2" data-name="Camada 2" xmlns="http://www.w3.org/2000/svg" viewBox="0 0 162.6 127.5">
  <defs>
    <style>
      .cls-1 {
        fill: #fff;
      }
    </style>
  </defs>
  <g id="Camada_1-2" data-name="Camada 1">
    <g>
      <g>
        <path class="cls-1" d="M96.19,18.38c1.7-4.84,3.79-6.15,7.2-5.89,6.28.39,13.22,6.41,18.45,6.81,7.72.52,11.65-6.94,13.35-12.04.13-.65-.65-1.18-.92-.39-1.57,4.97-3.66,7.2-7.2,6.94-6.68-.52-12.43-6.28-18.45-6.81-6.28-.52-11.65,5.89-13.35,10.99-.26.65.65,1.18.92.39Z"/>
        <path class="cls-1" d="M161.51,86.3c-1.96,3.01-3.79,6.02-6.94,6.02-2.88,0-4.45-4.06-5.1-7.59l-6.54-36.78c-3.4-19.11-14-21.99-24.87-21.99-16.76,0-30.48,8.74-39.48,25.13V.58c0-.48-.52-.72-.79-.48-4.71,2.3-14.6,5.65-19.71,6.98-.65.12-.65.85,0,.72,8.24-.61,10.29,3.67,10.29,10.09v51.76c-5.85,11.59-15.24,20.13-27.53,20.13-15.71,0-24.47-9.42-28.14-20.02-.79-6.54,4.71-9.29,12.3-11.13,14.13-3.27,35.34-3.14,35.34-17.54,0-8.51-12.3-14.4-26.04-14.4-22.12,0-34.29,17.15-34.29,36.65,0,17.67,14,31.93,33.11,31.93,15.9,0,27.75-9.09,35.26-23.12v8.3c0,9.44-.26,12.71-10.21,12.83-.79,0-.79.85,0,.85,6.81,0,7.98-.36,10.34-.36h9.95c2.36,0,3.53.36,10.34.36.79,0,.79-.85,0-.85-9.95-.12-10.21-3.39-10.21-12.83v-26.94c8.28-15.98,21.84-26.22,37.65-26.22,6.94,0,13.48,6.81,16.1,19.37,1.18,16.88-46.85,16.49-46.85,34.81,0,8.64,7.2,13.74,16.62,13.74,19.37,0,31.67-18.32,32.72-34.94l4.45,23.82c.92,4.84,3.66,10.73,11.78,10.73,6.02,0,8.77-3.4,11.52-7.98.26-.65-.65-1.05-1.05-.52ZM10.6,57.44c0-19.76,10.6-29.58,23.69-29.58,11.39,0,14.92,6.68,15.05,13.48.13,12.69-13.48,13.48-24.47,16.1-6.54,1.57-12.04,3.93-13.09,9.16-.79-3.14-1.18-6.28-1.18-9.16ZM110.34,90.62c-7.72,0-13.61-3.79-13.61-10.47,0-17.54,32.2-17.28,36.25-29.84l1.05,5.5c-.13,16.88-10.6,34.81-23.69,34.81h0Z"/>
      </g>
      <g>
        <path class="cls-1" d="M7.49,124.11h-.96v-11.52h.96v4.56c.31-.51.73-.9,1.27-1.16.54-.26,1.1-.39,1.69-.39.63,0,1.18.12,1.64.36.46.24.85.56,1.15.96.3.4.53.87.68,1.4s.22,1.09.22,1.66c0,.61-.07,1.18-.21,1.71s-.36,1-.66,1.38c-.3.39-.69.7-1.16.92-.47.22-1.04.34-1.71.34-.27,0-.54-.04-.82-.11-.28-.08-.55-.18-.81-.32-.26-.14-.5-.31-.72-.52s-.4-.45-.54-.73h-.03v1.46ZM7.49,119.94c0,.5.06.97.18,1.4.12.43.3.81.54,1.12.23.32.53.56.88.74.35.18.75.27,1.2.27.41,0,.78-.07,1.12-.22.34-.14.64-.35.9-.63s.46-.62.6-1.02c.14-.4.22-.86.22-1.38.02-.52-.02-1.01-.13-1.46-.11-.45-.28-.85-.51-1.19-.23-.34-.54-.61-.9-.81-.37-.2-.8-.3-1.29-.3-.44,0-.83.09-1.18.28s-.64.44-.88.75c-.24.32-.42.68-.55,1.1-.13.42-.19.87-.19,1.34Z"/>
        <path class="cls-1" d="M17.21,124.11h-.96v-8.29h.96v1.55h.03c.27-.66.61-1.12,1.03-1.38.42-.26.98-.39,1.67-.39v1.04c-.54-.01-.99.07-1.34.26-.35.18-.63.43-.84.74-.21.31-.35.67-.43,1.1-.08.42-.12.86-.12,1.32v4.06Z"/>
        <path class="cls-1" d="M25.33,119.28c.18-.02.4-.05.65-.1.25-.04.46-.1.62-.18.16-.08.26-.2.3-.38.04-.18.06-.34.06-.49,0-.49-.16-.89-.47-1.21-.31-.31-.84-.47-1.59-.47-.33,0-.63.03-.91.09s-.52.16-.73.3c-.21.14-.38.34-.51.58-.13.24-.22.54-.26.9h-.98c.03-.49.14-.91.34-1.26s.44-.63.74-.85.66-.38,1.06-.48c.4-.1.82-.15,1.27-.15.42,0,.81.04,1.18.14s.69.23.96.43c.27.2.49.46.64.79.16.33.23.74.23,1.22v4.51c0,.37.07.61.2.71.13.1.4.08.81-.07v.75c-.07.02-.18.05-.33.1-.14.04-.29.06-.42.06-.15,0-.29-.02-.43-.05-.16-.02-.29-.07-.38-.15-.1-.08-.17-.18-.23-.29-.06-.11-.1-.23-.12-.37-.02-.13-.03-.28-.03-.42-.41.45-.87.79-1.39,1.02s-1.09.35-1.7.35c-.36,0-.71-.05-1.05-.14s-.63-.25-.89-.45c-.26-.2-.46-.45-.61-.74-.15-.29-.22-.64-.22-1.05,0-1.41.96-2.24,2.9-2.5l1.33-.18ZM26.95,119.76c-.41.17-.82.28-1.23.34-.42.05-.83.1-1.25.13-.74.05-1.31.22-1.72.5-.41.28-.62.7-.62,1.26,0,.26.05.48.15.66s.23.34.4.46c.17.12.36.21.58.27s.44.09.66.09c.38,0,.76-.05,1.12-.14s.69-.24.97-.44c.28-.2.51-.45.68-.75.17-.3.26-.66.26-1.08v-1.3Z"/>
        <path class="cls-1" d="M31.38,124.11h-.96v-8.29h.96v1.15c.38-.41.78-.74,1.19-.99.41-.26.9-.38,1.48-.38.51,0,.99.09,1.42.26s.81.48,1.1.92c.2.3.32.61.36.92.04.32.06.64.06.98v5.42h-.96v-5.41c0-.75-.17-1.31-.5-1.68-.33-.37-.88-.56-1.65-.56-.3,0-.57.05-.82.14-.25.09-.47.21-.66.36-.2.15-.37.32-.5.51-.14.19-.25.39-.32.61-.1.27-.16.52-.18.77s-.03.51-.03.8v4.46Z"/>
        <path class="cls-1" d="M45.72,112.59h.96v11.52h-.96v-1.46h-.03c-.14.28-.32.52-.54.73-.22.21-.46.38-.72.52-.26.14-.53.25-.81.32-.28.07-.55.11-.82.11-.67,0-1.24-.11-1.71-.34-.47-.22-.86-.53-1.16-.92-.3-.39-.53-.85-.66-1.38s-.21-1.1-.21-1.71c0-.58.07-1.13.22-1.66s.38-1,.68-1.4c.3-.4.69-.72,1.15-.96.46-.24,1.01-.36,1.64-.36.59,0,1.15.13,1.69.39.54.26.96.65,1.27,1.16v-4.56ZM45.72,119.94c0-.47-.06-.92-.19-1.34-.13-.42-.31-.79-.55-1.1-.24-.31-.53-.57-.88-.75s-.74-.28-1.18-.28c-.5,0-.93.1-1.3.3-.36.2-.66.47-.9.81-.23.34-.41.74-.51,1.19-.11.45-.15.94-.13,1.46,0,.52.07.98.22,1.38.14.4.34.74.6,1.02s.55.49.9.63c.34.14.71.22,1.12.22.45,0,.85-.09,1.2-.27.35-.18.65-.43.88-.74.23-.31.41-.69.54-1.12.12-.43.18-.9.18-1.4Z"/>
        <path class="cls-1" d="M49.19,114.02v-1.42h1.06v1.42h-1.06ZM49.24,124.11v-8.29h.96v8.29h-.96Z"/>
        <path class="cls-1" d="M53.61,124.11h-.96v-8.29h.96v1.15c.38-.41.78-.74,1.19-.99.41-.26.9-.38,1.48-.38.51,0,.99.09,1.42.26s.81.48,1.1.92c.2.3.32.61.36.92.04.32.06.64.06.98v5.42h-.96v-5.41c0-.75-.17-1.31-.5-1.68-.33-.37-.88-.56-1.65-.56-.3,0-.57.05-.82.14-.25.09-.47.21-.66.36-.2.15-.37.32-.5.51-.14.19-.25.39-.32.61-.1.27-.16.52-.18.77s-.03.51-.03.8v4.46Z"/>
        <path class="cls-1" d="M67.94,115.82h.96v7.49c0,.55-.06,1.08-.17,1.59-.11.51-.31.95-.6,1.34s-.68.69-1.18.92c-.5.23-1.15.34-1.94.34-.61,0-1.13-.08-1.57-.23-.44-.16-.79-.35-1.07-.58-.28-.24-.49-.49-.63-.78-.14-.28-.22-.55-.23-.79h1.02c.08.31.19.56.35.76s.35.35.57.46c.22.11.46.19.73.23s.54.06.83.06c.65,0,1.17-.11,1.57-.34.39-.22.69-.52.9-.88.2-.36.33-.77.39-1.23.06-.46.08-.93.07-1.41-.31.51-.73.9-1.27,1.16-.54.26-1.1.39-1.69.39-.63,0-1.18-.12-1.64-.36-.46-.24-.85-.56-1.15-.96-.3-.4-.53-.87-.68-1.4s-.22-1.09-.22-1.66c0-.61.07-1.18.21-1.71s.36-.99.66-1.38c.3-.39.69-.7,1.16-.92.47-.22,1.04-.34,1.71-.34.27,0,.54.04.82.11.28.08.55.18.81.32.26.14.5.31.72.53.22.21.4.45.54.72h.03v-1.46ZM67.94,120c0-.5-.06-.97-.18-1.4-.12-.43-.3-.81-.54-1.12s-.53-.56-.88-.74c-.35-.18-.75-.27-1.2-.27-.41,0-.78.07-1.12.22-.34.14-.64.35-.9.63s-.46.62-.6,1.02c-.14.4-.22.86-.22,1.38-.02.52.02,1.01.13,1.46.11.45.28.85.51,1.19.24.34.53.61.9.81.36.2.79.3,1.3.3.44,0,.83-.09,1.18-.28s.64-.44.88-.75c.24-.31.42-.68.55-1.1.13-.42.19-.87.19-1.34Z"/>
        <path class="cls-1" d="M82.42,121.14c.2-.34.33-.7.39-1.08.06-.38.09-.77.09-1.16h.96c-.02.52-.09,1.04-.2,1.56-.11.52-.31,1-.6,1.45l1.87,2.21h-1.3l-1.12-1.36c-.5.6-1.04,1.02-1.62,1.28s-1.25.38-2.02.38c-.5,0-.97-.08-1.41-.25-.44-.17-.82-.4-1.15-.7s-.58-.66-.77-1.08c-.19-.42-.28-.89-.28-1.4,0-.43.07-.82.22-1.18s.35-.69.6-.99c.25-.3.54-.56.87-.79.33-.23.68-.43,1.06-.6-.31-.36-.59-.75-.85-1.18-.26-.42-.38-.89-.38-1.4,0-.36.07-.69.21-.97.14-.28.33-.52.56-.71.23-.19.51-.34.82-.43s.65-.14,1-.14.68.06.98.18.55.28.77.48c.21.2.38.44.5.71.12.27.18.56.18.86,0,.38-.06.72-.18,1-.12.28-.29.53-.5.75s-.45.42-.73.6c-.28.18-.57.36-.86.54l2.9,3.42ZM78.6,118.11c-.32.15-.62.33-.89.54-.27.21-.51.44-.7.7-.2.26-.35.53-.47.82-.12.29-.18.59-.18.9,0,.38.07.73.2,1.03.13.3.31.56.54.78.23.21.5.38.82.5.31.12.66.18,1.03.18.62,0,1.17-.14,1.64-.42.47-.28.9-.65,1.29-1.11l-3.28-3.9ZM80.65,115.47c.1-.21.14-.44.12-.68-.02-.24-.09-.46-.21-.66-.12-.2-.29-.36-.5-.49-.21-.13-.47-.19-.77-.19-.2,0-.39.03-.58.1-.18.06-.34.15-.49.27-.14.12-.26.26-.34.43-.08.17-.13.36-.13.58,0,.17.04.36.13.56.09.2.19.4.31.59.12.19.25.38.39.55s.26.33.37.46c.32-.19.64-.4.97-.63s.57-.53.73-.89Z"/>
        <path class="cls-1" d="M96.76,118.43c-.17-.62-.46-1.1-.88-1.45s-.94-.52-1.58-.52c-.49,0-.91.1-1.26.3-.35.2-.64.47-.86.81-.22.34-.39.71-.5,1.14-.11.42-.16.85-.16,1.27s.05.86.15,1.28.26.79.49,1.12c.22.33.51.59.86.79.35.2.78.3,1.28.3.71,0,1.29-.2,1.72-.59.43-.39.71-.94.82-1.63h1.02c-.08.46-.22.88-.41,1.26-.19.38-.43.7-.72.98-.29.27-.64.48-1.05.63s-.87.22-1.39.22c-.66,0-1.23-.11-1.71-.34-.48-.22-.87-.53-1.18-.92-.31-.39-.54-.85-.69-1.38s-.22-1.1-.22-1.71c0-.58.08-1.13.25-1.66.17-.53.41-.99.73-1.4.32-.41.72-.73,1.19-.97.47-.24,1.02-.36,1.64-.36.96,0,1.74.23,2.33.69.59.46.96,1.17,1.11,2.14h-.98Z"/>
        <path class="cls-1" d="M103.08,124.34c-.53-.01-1.03-.11-1.5-.29-.46-.18-.87-.45-1.22-.82-.35-.36-.62-.82-.82-1.36-.2-.54-.3-1.18-.3-1.9,0-.61.08-1.18.24-1.7.16-.53.4-.99.72-1.38.32-.39.72-.71,1.2-.94.48-.23,1.04-.34,1.68-.34s1.22.11,1.7.34c.48.23.88.54,1.2.93.32.39.56.85.71,1.38.16.53.23,1.1.23,1.71,0,.66-.09,1.26-.27,1.79-.18.53-.44.99-.78,1.38-.34.38-.74.68-1.22.89-.48.21-1,.31-1.58.31ZM105.89,119.97c0-.49-.05-.95-.16-1.38-.11-.43-.27-.8-.5-1.11-.22-.31-.51-.56-.86-.74-.35-.18-.78-.27-1.3-.27s-.93.1-1.29.3-.65.46-.87.78c-.22.33-.39.7-.5,1.12-.11.42-.16.86-.16,1.3,0,.51.06.98.18,1.42.12.43.3.8.54,1.11.24.31.53.55.88.72.35.17.76.26,1.22.26.5,0,.93-.1,1.29-.3.36-.2.65-.46.87-.79.22-.33.39-.7.5-1.12.11-.42.16-.85.16-1.3Z"/>
        <path class="cls-1" d="M109.64,124.11h-.96v-8.29h.96v1.15c.38-.41.78-.74,1.19-.99.41-.26.9-.38,1.48-.38.51,0,.99.09,1.42.26s.81.48,1.1.92c.2.3.32.61.36.92.04.32.06.64.06.98v5.42h-.96v-5.41c0-.75-.17-1.31-.5-1.68-.33-.37-.88-.56-1.65-.56-.3,0-.57.05-.82.14-.25.09-.47.21-.66.36-.2.15-.37.32-.5.51-.14.19-.25.39-.32.61-.1.27-.16.52-.18.77s-.03.51-.03.8v4.46Z"/>
        <path class="cls-1" d="M120.49,124.14c-.12.02-.27.06-.46.11-.19.05-.41.08-.64.08-.48,0-.85-.12-1.1-.36-.25-.24-.38-.67-.38-1.29v-6.06h-1.17v-.8h1.17v-2.3h.96v2.3h1.55v.8h-1.55v5.68c0,.2,0,.38.02.53s.04.27.1.37c.05.1.14.17.25.21.11.04.27.06.47.06.13,0,.26-.01.39-.03s.26-.05.39-.08v.78Z"/>
        <path class="cls-1" d="M122.61,120.19c0,.45.06.87.18,1.27.12.4.29.75.52,1.04.23.29.52.53.87.7.35.18.76.26,1.22.26.63,0,1.17-.17,1.62-.5.45-.33.75-.8.9-1.41h1.07c-.12.39-.27.76-.46,1.1-.19.34-.43.63-.72.88-.29.25-.63.45-1.02.58-.4.14-.85.21-1.38.21-.66,0-1.23-.11-1.71-.34-.48-.22-.88-.53-1.18-.92-.31-.39-.54-.85-.69-1.38-.15-.53-.22-1.1-.22-1.7s.09-1.18.26-1.71c.18-.53.43-1,.75-1.4.33-.4.72-.71,1.19-.94.47-.23,1-.34,1.6-.34,1.14,0,2.04.39,2.69,1.18s.97,1.92.96,3.42h-6.43ZM128.02,119.39c0-.41-.06-.79-.17-1.14-.11-.36-.28-.67-.5-.93-.22-.26-.49-.47-.82-.62-.33-.15-.71-.23-1.14-.23s-.8.08-1.13.24c-.33.16-.6.37-.83.64-.23.27-.41.58-.55.93-.14.35-.23.73-.27,1.12h5.41Z"/>
        <path class="cls-1" d="M136.53,115.82h.96v8.29h-.96v-1.15c-.13.15-.27.3-.43.46-.16.16-.34.31-.55.44-.21.13-.45.25-.73.34s-.6.14-.96.14c-.55,0-1.02-.08-1.39-.23-.37-.15-.67-.37-.9-.65s-.39-.6-.5-.97-.15-.77-.15-1.21v-5.46h.96v5.44c0,.71.17,1.26.5,1.64.33.38.87.57,1.63.57.39,0,.75-.08,1.06-.23.31-.15.58-.37.79-.65.21-.28.38-.61.5-.99.12-.38.18-.81.18-1.26v-4.51ZM133.3,114.93l1.78-2.22h1.23l-2.19,2.22h-.82Z"/>
        <path class="cls-1" d="M146.21,112.59h.96v11.52h-.96v-1.46h-.03c-.14.28-.32.52-.54.73-.22.21-.46.38-.72.52-.26.14-.53.25-.81.32-.28.07-.55.11-.82.11-.67,0-1.24-.11-1.71-.34-.47-.22-.86-.53-1.16-.92-.3-.39-.53-.85-.66-1.38s-.21-1.1-.21-1.71c0-.58.07-1.13.22-1.66s.38-1,.68-1.4c.3-.4.69-.72,1.15-.96.46-.24,1.01-.36,1.64-.36.59,0,1.15.13,1.69.39.54.26.96.65,1.27,1.16v-4.56ZM146.21,119.94c0-.47-.06-.92-.19-1.34-.13-.42-.31-.79-.55-1.1-.24-.31-.53-.57-.88-.75s-.74-.28-1.18-.28c-.5,0-.93.1-1.3.3-.36.2-.66.47-.9.81-.23.34-.41.74-.51,1.19-.11.45-.15.94-.13,1.46,0,.52.07.98.22,1.38.14.4.34.74.6,1.02s.55.49.9.63c.34.14.71.22,1.12.22.45,0,.85-.09,1.2-.27.35-.18.65-.43.88-.74.23-.31.41-.69.54-1.12.12-.43.18-.9.18-1.4Z"/>
        <path class="cls-1" d="M152.89,124.34c-.53-.01-1.03-.11-1.5-.29-.46-.18-.87-.45-1.22-.82-.35-.36-.62-.82-.82-1.36-.2-.54-.3-1.18-.3-1.9,0-.61.08-1.18.24-1.7.16-.53.4-.99.72-1.38.32-.39.72-.71,1.2-.94.48-.23,1.04-.34,1.68-.34s1.22.11,1.7.34c.48.23.88.54,1.2.93.32.39.56.85.71,1.38.16.53.23,1.1.23,1.71,0,.66-.09,1.26-.27,1.79-.18.53-.44.99-.78,1.38-.34.38-.74.68-1.22.89-.48.21-1,.31-1.58.31ZM155.7,119.97c0-.49-.05-.95-.16-1.38-.11-.43-.27-.8-.5-1.11-.22-.31-.51-.56-.86-.74-.35-.18-.78-.27-1.3-.27s-.93.1-1.29.3-.65.46-.87.78c-.22.33-.39.7-.5,1.12-.11.42-.16.86-.16,1.3,0,.51.06.98.18,1.42.12.43.3.8.54,1.11.24.31.53.55.88.72.35.17.76.26,1.22.26.5,0,.93-.1,1.29-.3.36-.2.65-.46.87-.79.22-.33.39-.7.5-1.12.11-.42.16-.85.16-1.3Z"/>
      </g>
    </g>
  </g>
</svg>